<?xml version="1.0" encoding="UTF-8" standalone="no"?>
<!DOCTYPE svg PUBLIC "-//W3C//DTD SVG 1.1//EN"
 "http://www.w3.org/Graphics/SVG/1.1/DTD/svg11.dtd">
<!-- Generated by graphviz version 2.43.0 (0)
 -->
<!-- Title: SophiaAdkTools Pages: 1 -->
<svg width="1838pt" height="848pt"
 viewBox="0.00 0.00 1838.00 848.00" xmlns="http://www.w3.org/2000/svg" xmlns:xlink="http://www.w3.org/1999/xlink">
<g id="graph0" class="graph" transform="scale(1 1) rotate(0) translate(4 844)">
<title>SophiaAdkTools</title>
<polygon fill="#ffffff" stroke="transparent" points="-4,4 -4,-844 1834,-844 1834,4 -4,4"/>
<text text-anchor="middle" x="915" y="-818.4" font-family="Inter, Arial, sans-serif" font-size="22.00">Sophia Agents / ADK / MCP Tools</text>
<g id="clust1" class="cluster">
<title>cluster_gemini</title>
<path fill="#fff1f2" stroke="#be123c" d="M20,-300C20,-300 838.5,-300 838.5,-300 844.5,-300 850.5,-306 850.5,-312 850.5,-312 850.5,-372 850.5,-372 850.5,-378 844.5,-384 838.5,-384 838.5,-384 20,-384 20,-384 14,-384 8,-378 8,-372 8,-372 8,-312 8,-312 8,-306 14,-300 20,-300"/>
<text text-anchor="middle" x="429.25" y="-362.4" font-family="Inter, Arial, sans-serif" font-size="22.00">Gemini Live domain setup</text>
</g>
<g id="clust2" class="cluster">
<title>cluster_agents</title>
<path fill="#eef2ff" stroke="#4f46e5" d="M358,-392C358,-392 1063.5,-392 1063.5,-392 1069.5,-392 1075.5,-398 1075.5,-404 1075.5,-404 1075.5,-788 1075.5,-788 1075.5,-794 1069.5,-800 1063.5,-800 1063.5,-800 358,-800 358,-800 352,-800 346,-794 346,-788 346,-788 346,-404 346,-404 346,-398 352,-392 358,-392"/>
<text text-anchor="middle" x="710.75" y="-778.4" font-family="Inter, Arial, sans-serif" font-size="22.00">Domain agents</text>
</g>
<g id="clust3" class="cluster">
<title>cluster_adk</title>
<path fill="#eef2ff" stroke="#4f46e5" d="M914,-8C914,-8 1540,-8 1540,-8 1546,-8 1552,-14 1552,-20 1552,-20 1552,-134 1552,-134 1552,-140 1546,-146 1540,-146 1540,-146 914,-146 914,-146 908,-146 902,-140 902,-134 902,-134 902,-20 902,-20 902,-14 908,-8 914,-8"/>
<text text-anchor="middle" x="1227" y="-124.4" font-family="Inter, Arial, sans-serif" font-size="22.00">ADK orchestration</text>
</g>
<g id="clust4" class="cluster">
<title>cluster_runtime_tools</title>
<path fill="#fff1f2" stroke="#be123c" d="M313,-154C313,-154 1370,-154 1370,-154 1376,-154 1382,-160 1382,-166 1382,-166 1382,-280 1382,-280 1382,-286 1376,-292 1370,-292 1370,-292 313,-292 313,-292 307,-292 301,-286 301,-280 301,-280 301,-166 301,-166 301,-160 307,-154 313,-154"/>
<text text-anchor="middle" x="841.5" y="-270.4" font-family="Inter, Arial, sans-serif" font-size="22.00">Runtime tool execution</text>
</g>
<g id="clust5" class="cluster">
<title>cluster_external</title>
<path fill="#faf5ff" stroke="#9333ea" d="M1584,-90C1584,-90 1818,-90 1818,-90 1824,-90 1830,-96 1830,-102 1830,-102 1830,-216 1830,-216 1830,-222 1824,-228 1818,-228 1818,-228 1584,-228 1584,-228 1578,-228 1572,-222 1572,-216 1572,-216 1572,-102 1572,-102 1572,-96 1578,-90 1584,-90"/>
<text text-anchor="middle" x="1701" y="-206.4" font-family="Inter, Arial, sans-serif" font-size="22.00">External tool integrations</text>
</g>
<!-- GeminiSetup -->
<g id="node1" class="node">
<title>GeminiSetup</title>
<path fill="#ffffff" stroke="#667085" d="M261,-344C261,-344 28,-344 28,-344 22,-344 16,-338 16,-332 16,-332 16,-320 16,-320 16,-314 22,-308 28,-308 28,-308 261,-308 261,-308 267,-308 273,-314 273,-320 273,-320 273,-332 273,-332 273,-338 267,-344 261,-344"/>
<text text-anchor="middle" x="144.5" y="-323.5" font-family="Inter, Arial, sans-serif" font-size="10.00">proxy/services/voice/infobipMediaWebSocketGemini.ts</text>
</g>
<!-- GeminiConfig -->
<g id="node2" class="node">
<title>GeminiConfig</title>
<path fill="#ffffff" stroke="#667085" d="M507.5,-344C507.5,-344 334.5,-344 334.5,-344 328.5,-344 322.5,-338 322.5,-332 322.5,-332 322.5,-320 322.5,-320 322.5,-314 328.5,-308 334.5,-308 334.5,-308 507.5,-308 507.5,-308 513.5,-308 519.5,-314 519.5,-320 519.5,-320 519.5,-332 519.5,-332 519.5,-338 513.5,-344 507.5,-344"/>
<text text-anchor="middle" x="421" y="-323.5" font-family="Inter, Arial, sans-serif" font-size="10.00">proxy/services/voice/geminiLive/config.ts</text>
</g>
<!-- GeminiSetup&#45;&gt;GeminiConfig -->
<g id="edge1" class="edge">
<title>GeminiSetup&#45;&gt;GeminiConfig</title>
<path fill="none" stroke="#475467" d="M273.04,-326C273.04,-326 315.15,-326 315.15,-326"/>
<polygon fill="#475467" stroke="#475467" points="315.15,-328.45 322.15,-326 315.15,-323.55 315.15,-328.45"/>
</g>
<!-- DomainRegistry -->
<g id="node4" class="node">
<title>DomainRegistry</title>
<path fill="#ffffff" stroke="#667085" d="M476,-571C476,-571 366,-571 366,-571 360,-571 354,-565 354,-559 354,-559 354,-547 354,-547 354,-541 360,-535 366,-535 366,-535 476,-535 476,-535 482,-535 488,-541 488,-547 488,-547 488,-559 488,-559 488,-565 482,-571 476,-571"/>
<text text-anchor="middle" x="421" y="-550.5" font-family="Inter, Arial, sans-serif" font-size="10.00">proxy/sofia/agents/index.ts</text>
</g>
<!-- GeminiSetup&#45;&gt;DomainRegistry -->
<g id="edge2" class="edge">
<title>GeminiSetup&#45;&gt;DomainRegistry</title>
<path fill="none" stroke="#475467" d="M145,-344.19C145,-398.06 145,-553 145,-553 145,-553 346.84,-553 346.84,-553"/>
<polygon fill="#475467" stroke="#475467" points="346.84,-555.45 353.84,-553 346.84,-550.55 346.84,-555.45"/>
</g>
<!-- ReceptionistDeclarations -->
<g id="node3" class="node">
<title>ReceptionistDeclarations</title>
<path fill="#ffffff" stroke="#667085" d="M830.5,-344C830.5,-344 586.5,-344 586.5,-344 580.5,-344 574.5,-338 574.5,-332 574.5,-332 574.5,-320 574.5,-320 574.5,-314 580.5,-308 586.5,-308 586.5,-308 830.5,-308 830.5,-308 836.5,-308 842.5,-314 842.5,-320 842.5,-320 842.5,-332 842.5,-332 842.5,-338 836.5,-344 830.5,-344"/>
<text text-anchor="middle" x="708.5" y="-323.5" font-family="Inter, Arial, sans-serif" font-size="10.00">proxy/services/voice/geminiLive/tools/receptionistTools.ts</text>
</g>
<!-- GeminiConfig&#45;&gt;ReceptionistDeclarations -->
<g id="edge3" class="edge">
<title>GeminiConfig&#45;&gt;ReceptionistDeclarations</title>
<path fill="none" stroke="#475467" d="M519.54,-326C519.54,-326 567.26,-326 567.26,-326"/>
<polygon fill="#475467" stroke="#475467" points="567.26,-328.45 574.26,-326 567.26,-323.55 567.26,-328.45"/>
</g>
<!-- SendSms -->
<g id="node21" class="node">
<title>SendSms</title>
<path fill="#ffffff" stroke="#667085" d="M1111,-252C1111,-252 896,-252 896,-252 890,-252 884,-246 884,-240 884,-240 884,-228 884,-228 884,-222 890,-216 896,-216 896,-216 1111,-216 1111,-216 1117,-216 1123,-222 1123,-228 1123,-228 1123,-240 1123,-240 1123,-246 1117,-252 1111,-252"/>
<text text-anchor="middle" x="1003.5" y="-231.5" font-family="Inter, Arial, sans-serif" font-size="10.00">proxy/services/voice/tools/receptionist/sendSms.ts</text>
</g>
<!-- ReceptionistDeclarations&#45;&gt;SendSms -->
<g id="edge26" class="edge">
<title>ReceptionistDeclarations&#45;&gt;SendSms</title>
<path fill="none" stroke="#475467" d="M842.54,-326C880.64,-326 912,-326 912,-326 912,-326 912,-259.18 912,-259.18"/>
<polygon fill="#475467" stroke="#475467" points="914.45,-259.18 912,-252.18 909.55,-259.18 914.45,-259.18"/>
</g>
<!-- IdentityAgent -->
<g id="node5" class="node">
<title>IdentityAgent</title>
<path fill="#ffffff" stroke="#667085" d="M781.5,-436C781.5,-436 635.5,-436 635.5,-436 629.5,-436 623.5,-430 623.5,-424 623.5,-424 623.5,-412 623.5,-412 623.5,-406 629.5,-400 635.5,-400 635.5,-400 781.5,-400 781.5,-400 787.5,-400 793.5,-406 793.5,-412 793.5,-412 793.5,-424 793.5,-424 793.5,-430 787.5,-436 781.5,-436"/>
<text text-anchor="middle" x="708.5" y="-415.5" font-family="Inter, Arial, sans-serif" font-size="10.00">proxy/sofia/agents/identity/agent.ts</text>
</g>
<!-- DomainRegistry&#45;&gt;IdentityAgent -->
<g id="edge4" class="edge">
<title>DomainRegistry&#45;&gt;IdentityAgent</title>
<path fill="none" stroke="#475467" d="M421,-534.79C421,-497.94 421,-418 421,-418 421,-418 616.41,-418 616.41,-418"/>
<polygon fill="#475467" stroke="#475467" points="616.41,-420.45 623.41,-418 616.41,-415.55 616.41,-420.45"/>
</g>
<!-- AppointmentsAgent -->
<g id="node6" class="node">
<title>AppointmentsAgent</title>
<path fill="#ffffff" stroke="#667085" d="M795,-490C795,-490 622,-490 622,-490 616,-490 610,-484 610,-478 610,-478 610,-466 610,-466 610,-460 616,-454 622,-454 622,-454 795,-454 795,-454 801,-454 807,-460 807,-466 807,-466 807,-478 807,-478 807,-484 801,-490 795,-490"/>
<text text-anchor="middle" x="708.5" y="-469.5" font-family="Inter, Arial, sans-serif" font-size="10.00">proxy/sofia/agents/appointments/agent.ts</text>
</g>
<!-- DomainRegistry&#45;&gt;AppointmentsAgent -->
<g id="edge6" class="edge">
<title>DomainRegistry&#45;&gt;AppointmentsAgent</title>
<path fill="none" stroke="#475467" d="M488.15,-538C546.26,-538 621,-538 621,-538 621,-538 621,-497.03 621,-497.03"/>
<polygon fill="#475467" stroke="#475467" points="623.45,-497.03 621,-490.03 618.55,-497.03 623.45,-497.03"/>
</g>
<!-- ProfileAgent -->
<g id="node7" class="node">
<title>ProfileAgent</title>
<path fill="#ffffff" stroke="#667085" d="M778.5,-544C778.5,-544 638.5,-544 638.5,-544 632.5,-544 626.5,-538 626.5,-532 626.5,-532 626.5,-520 626.5,-520 626.5,-514 632.5,-508 638.5,-508 638.5,-508 778.5,-508 778.5,-508 784.5,-508 790.5,-514 790.5,-520 790.5,-520 790.5,-532 790.5,-532 790.5,-538 784.5,-544 778.5,-544"/>
<text text-anchor="middle" x="708.5" y="-523.5" font-family="Inter, Arial, sans-serif" font-size="10.00">proxy/sofia/agents/profile/agent.ts</text>
</g>
<!-- DomainRegistry&#45;&gt;ProfileAgent -->
<g id="edge8" class="edge">
<title>DomainRegistry&#45;&gt;ProfileAgent</title>
<path fill="none" stroke="#475467" d="M488.04,-541C488.04,-541 619.46,-541 619.46,-541"/>
<polygon fill="#475467" stroke="#475467" points="619.46,-543.45 626.46,-541 619.46,-538.55 619.46,-543.45"/>
</g>
<!-- DocumentsAgent -->
<g id="node8" class="node">
<title>DocumentsAgent</title>
<path fill="#ffffff" stroke="#667085" d="M789.5,-598C789.5,-598 627.5,-598 627.5,-598 621.5,-598 615.5,-592 615.5,-586 615.5,-586 615.5,-574 615.5,-574 615.5,-568 621.5,-562 627.5,-562 627.5,-562 789.5,-562 789.5,-562 795.5,-562 801.5,-568 801.5,-574 801.5,-574 801.5,-586 801.5,-586 801.5,-592 795.5,-598 789.5,-598"/>
<text text-anchor="middle" x="708.5" y="-577.5" font-family="Inter, Arial, sans-serif" font-size="10.00">proxy/sofia/agents/documents/agent.ts</text>
</g>
<!-- DomainRegistry&#45;&gt;DocumentsAgent -->
<g id="edge10" class="edge">
<title>DomainRegistry&#45;&gt;DocumentsAgent</title>
<path fill="none" stroke="#475467" d="M488.04,-566.5C488.04,-566.5 608.45,-566.5 608.45,-566.5"/>
<polygon fill="#475467" stroke="#475467" points="608.45,-568.95 615.45,-566.5 608.45,-564.05 608.45,-568.95"/>
</g>
<!-- SignaturesAgent -->
<g id="node9" class="node">
<title>SignaturesAgent</title>
<path fill="#ffffff" stroke="#667085" d="M788,-652C788,-652 629,-652 629,-652 623,-652 617,-646 617,-640 617,-640 617,-628 617,-628 617,-622 623,-616 629,-616 629,-616 788,-616 788,-616 794,-616 800,-622 800,-628 800,-628 800,-640 800,-640 800,-646 794,-652 788,-652"/>
<text text-anchor="middle" x="708.5" y="-631.5" font-family="Inter, Arial, sans-serif" font-size="10.00">proxy/sofia/agents/signatures/agent.ts</text>
</g>
<!-- DomainRegistry&#45;&gt;SignaturesAgent -->
<g id="edge12" class="edge">
<title>DomainRegistry&#45;&gt;SignaturesAgent</title>
<path fill="none" stroke="#475467" d="M455,-571.38C455,-595.28 455,-634 455,-634 455,-634 609.98,-634 609.98,-634"/>
<polygon fill="#475467" stroke="#475467" points="609.98,-636.45 616.98,-634 609.98,-631.55 609.98,-636.45"/>
</g>
<!-- TasksAgent -->
<g id="node10" class="node">
<title>TasksAgent</title>
<path fill="#ffffff" stroke="#667085" d="M777.5,-706C777.5,-706 639.5,-706 639.5,-706 633.5,-706 627.5,-700 627.5,-694 627.5,-694 627.5,-682 627.5,-682 627.5,-676 633.5,-670 639.5,-670 639.5,-670 777.5,-670 777.5,-670 783.5,-670 789.5,-676 789.5,-682 789.5,-682 789.5,-694 789.5,-694 789.5,-700 783.5,-706 777.5,-706"/>
<text text-anchor="middle" x="708.5" y="-685.5" font-family="Inter, Arial, sans-serif" font-size="10.00">proxy/sofia/agents/tasks/agent.ts</text>
</g>
<!-- DomainRegistry&#45;&gt;TasksAgent -->
<g id="edge14" class="edge">
<title>DomainRegistry&#45;&gt;TasksAgent</title>
<path fill="none" stroke="#475467" d="M421,-571.21C421,-608.06 421,-688 421,-688 421,-688 620.27,-688 620.27,-688"/>
<polygon fill="#475467" stroke="#475467" points="620.27,-690.45 627.27,-688 620.27,-685.55 620.27,-690.45"/>
</g>
<!-- HandoffAgent -->
<g id="node11" class="node">
<title>HandoffAgent</title>
<path fill="#ffffff" stroke="#667085" d="M781.5,-760C781.5,-760 635.5,-760 635.5,-760 629.5,-760 623.5,-754 623.5,-748 623.5,-748 623.5,-736 623.5,-736 623.5,-730 629.5,-724 635.5,-724 635.5,-724 781.5,-724 781.5,-724 787.5,-724 793.5,-730 793.5,-736 793.5,-736 793.5,-748 793.5,-748 793.5,-754 787.5,-760 781.5,-760"/>
<text text-anchor="middle" x="708.5" y="-739.5" font-family="Inter, Arial, sans-serif" font-size="10.00">proxy/sofia/agents/handoff/agent.ts</text>
</g>
<!-- DomainRegistry&#45;&gt;HandoffAgent -->
<g id="edge16" class="edge">
<title>DomainRegistry&#45;&gt;HandoffAgent</title>
<path fill="none" stroke="#475467" d="M388,-571.12C388,-618.43 388,-742 388,-742 388,-742 616.45,-742 616.45,-742"/>
<polygon fill="#475467" stroke="#475467" points="616.45,-744.45 623.45,-742 616.45,-739.55 616.45,-744.45"/>
</g>
<!-- SofiaMcpTools -->
<g id="node12" class="node">
<title>SofiaMcpTools</title>
<path fill="#ffffff" stroke="#667085" d="M1055.5,-598C1055.5,-598 951.5,-598 951.5,-598 945.5,-598 939.5,-592 939.5,-586 939.5,-586 939.5,-574 939.5,-574 939.5,-568 945.5,-562 951.5,-562 951.5,-562 1055.5,-562 1055.5,-562 1061.5,-562 1067.5,-568 1067.5,-574 1067.5,-574 1067.5,-586 1067.5,-586 1067.5,-592 1061.5,-598 1055.5,-598"/>
<text text-anchor="middle" x="1003.5" y="-577.5" font-family="Inter, Arial, sans-serif" font-size="10.00">proxy/sofia/mcp/*/tools.ts</text>
</g>
<!-- IdentityAgent&#45;&gt;SofiaMcpTools -->
<g id="edge5" class="edge">
<title>IdentityAgent&#45;&gt;SofiaMcpTools</title>
<path fill="none" stroke="#475467" d="M793.69,-418C890.73,-418 1036,-418 1036,-418 1036,-418 1036,-554.73 1036,-554.73"/>
<polygon fill="#475467" stroke="#475467" points="1033.55,-554.73 1036,-561.73 1038.45,-554.73 1033.55,-554.73"/>
</g>
<!-- AppointmentsAgent&#45;&gt;SofiaMcpTools -->
<g id="edge7" class="edge">
<title>AppointmentsAgent&#45;&gt;SofiaMcpTools</title>
<path fill="none" stroke="#475467" d="M807.31,-472C893.21,-472 1004,-472 1004,-472 1004,-472 1004,-554.68 1004,-554.68"/>
<polygon fill="#475467" stroke="#475467" points="1001.55,-554.68 1004,-561.68 1006.45,-554.68 1001.55,-554.68"/>
</g>
<!-- ProfileAgent&#45;&gt;SofiaMcpTools -->
<g id="edge9" class="edge">
<title>ProfileAgent&#45;&gt;SofiaMcpTools</title>
<path fill="none" stroke="#475467" d="M790.79,-526C868.1,-526 972,-526 972,-526 972,-526 972,-554.72 972,-554.72"/>
<polygon fill="#475467" stroke="#475467" points="969.55,-554.72 972,-561.72 974.45,-554.72 969.55,-554.72"/>
</g>
<!-- DocumentsAgent&#45;&gt;SofiaMcpTools -->
<g id="edge11" class="edge">
<title>DocumentsAgent&#45;&gt;SofiaMcpTools</title>
<path fill="none" stroke="#475467" d="M801.84,-580C801.84,-580 932.22,-580 932.22,-580"/>
<polygon fill="#475467" stroke="#475467" points="932.22,-582.45 939.22,-580 932.22,-577.55 932.22,-582.45"/>
</g>
<!-- SignaturesAgent&#45;&gt;SofiaMcpTools -->
<g id="edge13" class="edge">
<title>SignaturesAgent&#45;&gt;SofiaMcpTools</title>
<path fill="none" stroke="#475467" d="M800.29,-634C876.34,-634 972,-634 972,-634 972,-634 972,-605.28 972,-605.28"/>
<polygon fill="#475467" stroke="#475467" points="974.45,-605.28 972,-598.28 969.55,-605.28 974.45,-605.28"/>
</g>
<!-- TasksAgent&#45;&gt;SofiaMcpTools -->
<g id="edge15" class="edge">
<title>TasksAgent&#45;&gt;SofiaMcpTools</title>
<path fill="none" stroke="#475467" d="M789.64,-688C877.12,-688 1004,-688 1004,-688 1004,-688 1004,-605.32 1004,-605.32"/>
<polygon fill="#475467" stroke="#475467" points="1006.45,-605.32 1004,-598.32 1001.55,-605.32 1006.45,-605.32"/>
</g>
<!-- HandoffAgent&#45;&gt;SofiaMcpTools -->
<g id="edge17" class="edge">
<title>HandoffAgent&#45;&gt;SofiaMcpTools</title>
<path fill="none" stroke="#475467" d="M793.69,-742C890.73,-742 1036,-742 1036,-742 1036,-742 1036,-605.27 1036,-605.27"/>
<polygon fill="#475467" stroke="#475467" points="1038.45,-605.27 1036,-598.27 1033.55,-605.27 1038.45,-605.27"/>
</g>
<!-- SophiaAdk -->
<g id="node13" class="node">
<title>SophiaAdk</title>
<path fill="#ffffff" stroke="#667085" d="M1085,-106C1085,-106 922,-106 922,-106 916,-106 910,-100 910,-94 910,-94 910,-82 910,-82 910,-76 916,-70 922,-70 922,-70 1085,-70 1085,-70 1091,-70 1097,-76 1097,-82 1097,-82 1097,-94 1097,-94 1097,-100 1091,-106 1085,-106"/>
<text text-anchor="middle" x="1003.5" y="-85.5" font-family="Inter, Arial, sans-serif" font-size="10.00">proxy/sofia/adk/orchestrationService.ts</text>
</g>
<!-- SophiaAdkTools -->
<g id="node14" class="node">
<title>SophiaAdkTools</title>
<path fill="#ffffff" stroke="#667085" d="M1314,-106C1314,-106 1219,-106 1219,-106 1213,-106 1207,-100 1207,-94 1207,-94 1207,-82 1207,-82 1207,-76 1213,-70 1219,-70 1219,-70 1314,-70 1314,-70 1320,-70 1326,-76 1326,-82 1326,-82 1326,-94 1326,-94 1326,-100 1320,-106 1314,-106"/>
<text text-anchor="middle" x="1266.5" y="-85.5" font-family="Inter, Arial, sans-serif" font-size="10.00">proxy/sofia/adk/tools.ts</text>
</g>
<!-- SophiaAdk&#45;&gt;SophiaAdkTools -->
<g id="edge18" class="edge">
<title>SophiaAdk&#45;&gt;SophiaAdkTools</title>
<path fill="none" stroke="#475467" d="M1097.34,-88C1097.34,-88 1199.74,-88 1199.74,-88"/>
<polygon fill="#475467" stroke="#475467" points="1199.74,-90.45 1206.74,-88 1199.74,-85.55 1199.74,-90.45"/>
</g>
<!-- GoogleAdkFunctionTool -->
<g id="node16" class="node">
<title>GoogleAdkFunctionTool</title>
<path fill="#ffffff" stroke="#667085" d="M1531.5,-52C1531.5,-52 1422.5,-52 1422.5,-52 1416.5,-52 1410.5,-46 1410.5,-40 1410.5,-40 1410.5,-28 1410.5,-28 1410.5,-22 1416.5,-16 1422.5,-16 1422.5,-16 1531.5,-16 1531.5,-16 1537.5,-16 1543.5,-22 1543.5,-28 1543.5,-28 1543.5,-40 1543.5,-40 1543.5,-46 1537.5,-52 1531.5,-52"/>
<text text-anchor="middle" x="1477" y="-31.5" font-family="Inter, Arial, sans-serif" font-size="10.00">@google/adk FunctionTool</text>
</g>
<!-- SophiaAdkTools&#45;&gt;GoogleAdkFunctionTool -->
<g id="edge19" class="edge">
<title>SophiaAdkTools&#45;&gt;GoogleAdkFunctionTool</title>
<path fill="none" stroke="#475467" d="M1267,-69.72C1267,-54.05 1267,-34 1267,-34 1267,-34 1403.27,-34 1403.27,-34"/>
<polygon fill="#475467" stroke="#475467" points="1403.27,-36.45 1410.27,-34 1403.27,-31.55 1403.27,-36.45"/>
</g>
<!-- GoogleMapsGroundingTool -->
<g id="node17" class="node">
<title>GoogleMapsGroundingTool</title>
<path fill="#ffffff" stroke="#667085" d="M1532,-106C1532,-106 1422,-106 1422,-106 1416,-106 1410,-100 1410,-94 1410,-94 1410,-82 1410,-82 1410,-76 1416,-70 1422,-70 1422,-70 1532,-70 1532,-70 1538,-70 1544,-76 1544,-82 1544,-82 1544,-94 1544,-94 1544,-100 1538,-106 1532,-106"/>
<text text-anchor="middle" x="1477" y="-91" font-family="Inter, Arial, sans-serif" font-size="10.00">GoogleMapsGroundingTool</text>
<text text-anchor="middle" x="1477" y="-80" font-family="Inter, Arial, sans-serif" font-size="10.00">proxy/sofia/adk/tools.ts</text>
</g>
<!-- SophiaAdkTools&#45;&gt;GoogleMapsGroundingTool -->
<g id="edge20" class="edge">
<title>SophiaAdkTools&#45;&gt;GoogleMapsGroundingTool</title>
<path fill="none" stroke="#475467" d="M1326.26,-88C1326.26,-88 1402.68,-88 1402.68,-88"/>
<polygon fill="#475467" stroke="#475467" points="1402.68,-90.45 1409.68,-88 1402.68,-85.55 1402.68,-90.45"/>
</g>
<!-- SophiaAdkBridge -->
<g id="node15" class="node">
<title>SophiaAdkBridge</title>
<path fill="#ffffff" stroke="#667085" d="M1062,-52C1062,-52 945,-52 945,-52 939,-52 933,-46 933,-40 933,-40 933,-28 933,-28 933,-22 939,-16 945,-16 945,-16 1062,-16 1062,-16 1068,-16 1074,-22 1074,-28 1074,-28 1074,-40 1074,-40 1074,-46 1068,-52 1062,-52"/>
<text text-anchor="middle" x="1003.5" y="-31.5" font-family="Inter, Arial, sans-serif" font-size="10.00">proxy/sofia/adk/toolBridge.ts</text>
</g>
<!-- GoogleMapsMcp -->
<g id="node23" class="node">
<title>GoogleMapsMcp</title>
<path fill="#ffffff" stroke="#667085" d="M1781,-134C1781,-134 1620,-134 1620,-134 1614,-134 1608,-128 1608,-122 1608,-122 1608,-110 1608,-110 1608,-104 1614,-98 1620,-98 1620,-98 1781,-98 1781,-98 1787,-98 1793,-104 1793,-110 1793,-110 1793,-122 1793,-122 1793,-128 1787,-134 1781,-134"/>
<text text-anchor="middle" x="1700.5" y="-113.5" font-family="Inter, Arial, sans-serif" font-size="10.00">https://mapstools.googleapis.com/mcp</text>
</g>
<!-- GoogleMapsGroundingTool&#45;&gt;GoogleMapsMcp -->
<g id="edge21" class="edge">
<title>GoogleMapsGroundingTool&#45;&gt;GoogleMapsMcp</title>
<path fill="none" stroke="#475467" d="M1544.06,-102C1544.06,-102 1600.87,-102 1600.87,-102"/>
<polygon fill="#475467" stroke="#475467" points="1600.87,-104.45 1607.87,-102 1600.87,-99.55 1600.87,-104.45"/>
</g>
<!-- Dispatcher -->
<g id="node18" class="node">
<title>Dispatcher</title>
<path fill="#ffffff" stroke="#667085" d="M521,-225C521,-225 321,-225 321,-225 315,-225 309,-219 309,-213 309,-213 309,-201 309,-201 309,-195 315,-189 321,-189 321,-189 521,-189 521,-189 527,-189 533,-195 533,-201 533,-201 533,-213 533,-213 533,-219 527,-225 521,-225"/>
<text text-anchor="middle" x="421" y="-204.5" font-family="Inter, Arial, sans-serif" font-size="10.00">proxy/services/voice/tools/dispatcher/registry.ts</text>
</g>
<!-- Runner -->
<g id="node19" class="node">
<title>Runner</title>
<path fill="#ffffff" stroke="#667085" d="M816.5,-198C816.5,-198 600.5,-198 600.5,-198 594.5,-198 588.5,-192 588.5,-186 588.5,-186 588.5,-174 588.5,-174 588.5,-168 594.5,-162 600.5,-162 600.5,-162 816.5,-162 816.5,-162 822.5,-162 828.5,-168 828.5,-174 828.5,-174 828.5,-186 828.5,-186 828.5,-192 822.5,-198 816.5,-198"/>
<text text-anchor="middle" x="708.5" y="-177.5" font-family="Inter, Arial, sans-serif" font-size="10.00">proxy/services/voice/tools/dispatcher/toolRunner.ts</text>
</g>
<!-- Dispatcher&#45;&gt;Runner -->
<g id="edge22" class="edge">
<title>Dispatcher&#45;&gt;Runner</title>
<path fill="none" stroke="#475467" d="M533.39,-193.5C533.39,-193.5 581.11,-193.5 581.11,-193.5"/>
<polygon fill="#475467" stroke="#475467" points="581.11,-195.95 588.11,-193.5 581.11,-191.05 581.11,-195.95"/>
</g>
<!-- ReceptionistRegistry -->
<g id="node20" class="node">
<title>ReceptionistRegistry</title>
<path fill="#ffffff" stroke="#667085" d="M836,-252C836,-252 581,-252 581,-252 575,-252 569,-246 569,-240 569,-240 569,-228 569,-228 569,-222 575,-216 581,-216 581,-216 836,-216 836,-216 842,-216 848,-222 848,-228 848,-228 848,-240 848,-240 848,-246 842,-252 836,-252"/>
<text text-anchor="middle" x="708.5" y="-231.5" font-family="Inter, Arial, sans-serif" font-size="10.00">proxy/services/voice/tools/dispatcher/receptionistRegistry.ts</text>
</g>
<!-- Dispatcher&#45;&gt;ReceptionistRegistry -->
<g id="edge24" class="edge">
<title>Dispatcher&#45;&gt;ReceptionistRegistry</title>
<path fill="none" stroke="#475467" d="M533.39,-220.5C533.39,-220.5 561.89,-220.5 561.89,-220.5"/>
<polygon fill="#475467" stroke="#475467" points="561.89,-222.95 568.89,-220.5 561.89,-218.05 561.89,-222.95"/>
</g>
<!-- Runner&#45;&gt;SophiaAdkBridge -->
<g id="edge23" class="edge">
<title>Runner&#45;&gt;SophiaAdkBridge</title>
<path fill="none" stroke="#475467" d="M709,-161.8C709,-122.67 709,-34 709,-34 709,-34 925.96,-34 925.96,-34"/>
<polygon fill="#475467" stroke="#475467" points="925.96,-36.45 932.96,-34 925.96,-31.55 925.96,-36.45"/>
</g>
<!-- ReceptionistRegistry&#45;&gt;SendSms -->
<g id="edge25" class="edge">
<title>ReceptionistRegistry&#45;&gt;SendSms</title>
<path fill="none" stroke="#475467" d="M848.22,-234C848.22,-234 876.86,-234 876.86,-234"/>
<polygon fill="#475467" stroke="#475467" points="876.86,-236.45 883.86,-234 876.86,-231.55 876.86,-236.45"/>
</g>
<!-- NotificationHub -->
<g id="node22" class="node">
<title>NotificationHub</title>
<path fill="#ffffff" stroke="#667085" d="M1362,-235C1362,-235 1171,-235 1171,-235 1165,-235 1159,-229 1159,-223 1159,-223 1159,-211 1159,-211 1159,-205 1165,-199 1171,-199 1171,-199 1362,-199 1362,-199 1368,-199 1374,-205 1374,-211 1374,-211 1374,-223 1374,-223 1374,-229 1368,-235 1362,-235"/>
<text text-anchor="middle" x="1266.5" y="-214.5" font-family="Inter, Arial, sans-serif" font-size="10.00">proxy/services/notifications/notificationHub.ts</text>
</g>
<!-- SendSms&#45;&gt;NotificationHub -->
<g id="edge27" class="edge">
<title>SendSms&#45;&gt;NotificationHub</title>
<path fill="none" stroke="#475467" d="M1123.07,-225.5C1123.07,-225.5 1151.89,-225.5 1151.89,-225.5"/>
<polygon fill="#475467" stroke="#475467" points="1151.89,-227.95 1158.89,-225.5 1151.89,-223.05 1151.89,-227.95"/>
</g>
<!-- InfobipSms -->
<g id="node24" class="node">
<title>InfobipSms</title>
<path fill="#ffffff" stroke="#667085" d="M1724,-188C1724,-188 1677,-188 1677,-188 1671,-188 1665,-182 1665,-176 1665,-176 1665,-164 1665,-164 1665,-158 1671,-152 1677,-152 1677,-152 1724,-152 1724,-152 1730,-152 1736,-158 1736,-164 1736,-164 1736,-176 1736,-176 1736,-182 1730,-188 1724,-188"/>
<text text-anchor="middle" x="1700.5" y="-167.5" font-family="Inter, Arial, sans-serif" font-size="10.00">Infobip SMS</text>
</g>
<!-- NotificationHub&#45;&gt;InfobipSms -->
<g id="edge28" class="edge">
<title>NotificationHub&#45;&gt;InfobipSms</title>
<path fill="none" stroke="#475467" d="M1350,-198.94C1350,-187.56 1350,-175 1350,-175 1350,-175 1657.96,-175 1657.96,-175"/>
<polygon fill="#475467" stroke="#475467" points="1657.96,-177.45 1664.96,-175 1657.96,-172.55 1657.96,-177.45"/>
</g>
</g>
</svg>
